<?xml version="1.0" encoding="utf-8"?>
<!DOCTYPE svg PUBLIC "-//W3C//DTD SVG 1.0//EN" "http://www.w3.org/TR/2001/REC-SVG-20010904/DTD/svg10.dtd">
<svg version="1.0" xmlns="http://www.w3.org/2000/svg" width="1024px" height="1024px" viewBox="0 0 1024 1024" preserveAspectRatio="xMidYMid meet">
 <g fill="#161616">
  <path d="M496.25 905.45 c-12.10 -0.75 -23.35 -1.80 -32.25 -3 -11.05 -1.50 -11.20 -1.55 -21.25 -3.45 -6.65 -1.25 -14.35 -2.85 -16.75 -3.50 -0.95 -0.25 -3.10 -0.80 -4.75 -1.20 -13.65 -3.35 -38.65 -11.60 -48.50 -16.05 -0.80 -0.35 -3.20 -1.35 -5.25 -2.15 -12.20 -4.90 -34.65 -16.35 -50 -25.60 -18.30 -10.95 -36.25 -24.15 -53.50 -39.30 -28.15 -24.75 -54.90 -57.05 -72.25 -87.20 -2.10 -3.70 -4.25 -7.30 -4.75 -8 -3.90 -5.65 -15 -26.95 -19.90 -38.25 -4.95 -11.40 -12.90 -33 -16.10 -43.75 -0.65 -2.05 -1.45 -4.70 -1.80 -5.85 -0.70 -2.25 -3.25 -11.50 -4.90 -17.90 -5 -19.35 -7.75 -36.75 -10.90 -68.25 -0.85 -8.55 -0.85 -51.30 0 -61 1.30 -15 2.35 -24.95 3.10 -29.75 0.25 -1.65 0.70 -4.70 1 -6.75 1.70 -11.45 4.45 -24.90 7.55 -36.75 0.55 -2.20 1.20 -4.80 1.45 -5.75 0.70 -2.75 3.55 -12.15 4.05 -13.25 0.20 -0.55 1.25 -3.45 2.20 -6.50 2.85 -8.65 9.75 -26.75 12.75 -33.50 0.45 -1.10 1.50 -3.45 2.30 -5.25 1.90 -4.35 9.85 -20.35 11.90 -23.90 0.90 -1.55 2.45 -4.30 3.40 -6.10 8.25 -15.50 26.65 -41.65 43.35 -61.75 11.60 -13.95 31.70 -34.15 46.55 -46.80 15.95 -13.55 36.80 -27.85 55.75 -38.20 1.95 -1.05 4.30 -2.35 5.25 -2.90 2.65 -1.50 16.75 -8.50 21.25 -10.60 16.50 -7.60 37.05 -15.35 53.75 -20.20 2.05 -0.65 4.30 -1.30 5 -1.55 1.10 -0.40 15 -3.80 20.25 -5 3.65 -0.80 6.85 -1.40 16.15 -3 8.85 -1.50 19.80 -2.75 35.60 -4.10 10.55 -0.90 42.45 -0.70 53.75 0.30 17.25 1.55 25.95 2.75 44 6.10 1.40 0.25 2.60 0.50 7.90 1.70 23.65 5.30 50.85 14 68.85 22.10 1.25 0.55 3.45 1.55 4.90 2.20 1.45 0.65 2.75 1.20 2.85 1.20 0.50 0 22.70 11 27 13.40 9.75 5.35 10.70 5.95 24.25 14.50 20.45 12.95 29.70 20.10 46.80 36.10 9.05 8.50 22.50 22.20 28.35 28.85 2.10 2.40 12.25 15.05 18.15 22.65 16 20.55 29.85 43.75 40.70 68.25 0.60 1.40 1.80 3.95 2.60 5.75 0.85 1.80 1.95 4.40 2.50 5.75 0.55 1.40 1.25 3.20 1.65 4 1.65 3.80 7.75 19.75 9.05 23.75 0.40 1.25 0.95 2.70 1.15 3.25 0.25 0.55 1.40 4.05 2.55 7.75 1.15 3.70 2.30 7.30 2.50 8 0.60 1.65 2.20 7.25 3.50 12.25 0.60 2.20 1.40 5.25 1.80 6.75 0.40 1.50 0.95 3.65 1.15 4.75 0.25 1.10 0.95 4.15 1.50 6.75 1.20 5.30 1.55 7.10 3.05 15.75 1.85 10.90 3.35 23 5.10 42.25 0.40 4.25 0.65 15.90 0.65 31.75 0 25 -0.15 28.45 -2.05 43.25 -0.40 3.15 -0.95 7.45 -1.20 9.50 -0.25 2.05 -0.60 4.20 -0.70 4.75 -0.15 0.55 -0.50 2.80 -0.80 5 -0.30 2.20 -0.75 5 -1 6.25 -0.25 1.25 -0.70 3.70 -1 5.50 -1 5.55 -1.55 8.35 -2.95 14.50 -1.50 6.75 -2.70 11.60 -3.60 14.50 -0.50 1.80 -0.95 3.50 -0.95 3.75 0 1.95 -9.75 30.60 -12.75 37.50 -0.35 0.85 -1.40 3.30 -2.25 5.50 -0.90 2.20 -2 4.90 -2.50 6 -0.45 1.10 -1.95 4.50 -3.30 7.50 -3.05 7.05 -14.40 29.45 -17.10 33.90 -1.15 1.85 -2.10 3.55 -2.10 3.80 0 0.25 -0.20 0.55 -0.40 0.65 -0.20 0.10 -1.45 1.95 -2.80 4.15 -1.30 2.20 -3.85 6.35 -5.65 9.25 -1.80 2.90 -4.20 6.70 -5.30 8.50 -10.95 17.75 -23.60 32.90 -47.30 56.50 -19.50 19.40 -37.80 34.45 -58.60 48.05 -7.95 5.20 -17.10 10.85 -22.45 13.85 -1.25 0.70 -4.60 2.60 -7.50 4.20 -5.35 3.05 -22.35 11.60 -27.75 14 -5.80 2.60 -12.05 5.25 -15 6.35 -1.65 0.65 -3.45 1.35 -4 1.55 -0.55 0.20 -2.25 0.85 -3.75 1.40 -1.50 0.55 -3.75 1.40 -4.95 1.85 -5.15 1.90 -19.40 6.45 -25.30 8 -11.50 3.10 -14.90 3.90 -25 5.95 -8.45 1.70 -11.10 2.15 -16.25 2.80 -2.35 0.30 -5.15 0.65 -6.25 0.80 -11.55 1.50 -47.20 2.15 -63.50 1.15z m93.75 -44.05 c1 -1.10 1.05 -1.50 0.75 -7.40 -0.30 -5.80 -0.20 -6.85 1.25 -14 0.90 -4.25 1.80 -8.65 2 -9.75 0.20 -1.10 0.75 -3.70 1.20 -5.75 0.45 -2.05 1.05 -4.80 1.30 -6.10 0.30 -1.35 0.75 -3.45 1 -4.75 1.55 -7.40 2.50 -12.50 2.50 -13.65 0 -1.20 -1.55 -7.55 -4.55 -18.85 -2.15 -8.10 -3 -11.50 -3.45 -13.65 -0.25 -1.25 -0.80 -3.70 -1.20 -5.50 -0.40 -1.80 -0.85 -4.75 -1.05 -6.60 -0.20 -1.90 -0.50 -3.40 -0.70 -3.40 -0.15 0 -1.85 0.65 -3.80 1.45 -4.50 1.85 -6.70 2.35 -14.10 3.10 -8.65 0.90 -16.60 0.15 -29.65 -2.80 -6.60 -1.50 -14.20 -4 -21.25 -7 -3.40 -1.45 -13.85 -6.75 -15.30 -7.80 -0.75 -0.50 -1.55 -0.95 -1.85 -0.95 -0.70 0 -1.80 -1.45 -1.40 -1.85 0.15 -0.15 0.80 -0.10 1.45 0.20 0.60 0.30 2.10 0.80 3.35 1.10 1.25 0.25 3.70 0.85 5.50 1.25 1.80 0.45 4.50 1.05 6 1.35 1.50 0.30 3.65 0.75 4.75 1 2.40 0.55 6.40 1.25 12.75 2.20 5.60 0.85 22.65 1 26.60 0.25 6.65 -1.30 8.45 -1.75 12.65 -3.15 19 -6.30 31.30 -20.35 35.50 -40.50 2.50 -12.05 3.15 -22.15 1.90 -29.20 -0.35 -2.20 -0.80 -2.05 -1.55 0.50 -1 3.20 -6.25 13.75 -9.20 18.45 -6.65 10.65 -13.60 18.05 -20.40 21.80 -6.05 3.30 -16.10 5.60 -24.60 5.60 -3.25 0 -12.45 -1.05 -15.15 -1.70 -0.55 -0.15 -2.55 -0.60 -4.50 -1.10 -23.10 -5.45 -59.70 -26 -89.75 -50.35 -32.30 -26.25 -50.95 -49.70 -71.05 -89.45 -2.75 -5.45 -5.20 -9.90 -5.50 -9.90 -0.35 0 -0.40 0.35 -0.20 0.90 1.30 3.10 1.30 6.25 -0.10 13.10 -1.60 7.70 -1.75 8.95 -2 17.25 -0.35 12.40 1 21.15 5.15 33.60 5.80 17.30 13.85 31.75 26.70 47.90 13.20 16.50 28.40 30.70 50.75 47.40 7.65 5.70 24.90 17.40 30.75 20.85 1.50 0.90 5.80 3.45 9.50 5.65 8.80 5.20 9.50 5.60 20.25 11.70 5.60 3.15 13.30 7.85 17.80 10.80 3.75 2.50 4.80 3.60 9.75 9.95 11.25 14.55 22.95 31.65 32 46.65 2.80 4.70 9.90 18.55 11.95 23.40 0.80 1.90 1.80 3.70 2.25 4 0.45 0.35 1.45 1.55 2.25 2.75 0.75 1.15 1.45 2.10 1.55 2.10 0.10 0 0.65 -0.50 1.20 -1.10z m52.05 -14.20 c0.75 -0.35 2.05 -1.55 2.90 -2.65 6.10 -7.70 2.55 -20.80 -6.85 -25.35 -2.60 -1.25 -8 -1.55 -10 -0.50 -2.05 1.05 -3.95 3.60 -5.15 6.90 -2.70 7.45 0.90 16.70 8.10 20.60 4.05 2.20 7.90 2.55 11 1z m130.80 -90.45 c14.50 -16.50 31.85 -40.50 42.80 -59.25 2.55 -4.40 11.25 -21.45 13.60 -26.75 1.60 -3.65 6.20 -15 6.75 -16.75 0.25 -0.70 1.10 -3.15 2 -5.50 1.70 -4.60 7.35 -21.60 9.05 -27.25 0.60 -1.90 1.25 -4.05 1.50 -4.75 0.25 -0.70 0.80 -2.60 1.25 -4.25 0.45 -1.65 1 -3.80 1.30 -4.75 0.25 -0.95 0.65 -2.55 0.90 -3.50 0.20 -0.95 0.80 -3.20 1.25 -5 0.85 -3.35 2.45 -10.25 3.25 -13.75 1.20 -5.40 1.10 -4.85 3 -17.25 6.35 -41.90 5.85 -85.25 -1.55 -126.75 -0.55 -3 -1.20 -6.40 -1.45 -7.50 -0.25 -1.10 -0.70 -3.10 -1 -4.50 -3.30 -15.25 -7.25 -28.75 -12.90 -44.50 -4.40 -12.15 -5.80 -15.70 -10.20 -25.75 -4.60 -10.45 -14.90 -31.20 -18.30 -36.80 -16.35 -26.90 -41.60 -58.40 -63.40 -79 -27.35 -25.95 -51.55 -42.90 -83.95 -58.95 -6.85 -3.40 -13.95 -6.80 -15.75 -7.55 -1.80 -0.70 -4.15 -1.75 -5.25 -2.20 -2.35 -1.05 -5.35 -2.15 -15.15 -5.60 -8.75 -3.05 -13.55 -4.45 -27.10 -7.95 -7.65 -2 -21.15 -4.95 -27.25 -6 -7.90 -1.30 -13.45 -2.15 -22.50 -3.45 -4.05 -0.55 -11.80 -1.30 -20.90 -2 -8.30 -0.65 -39.20 -0.65 -47 0 -15.90 1.30 -18.80 1.60 -21.60 2 -1.65 0.25 -4.90 0.70 -7.25 1 -2.35 0.30 -5.35 0.75 -6.75 1 -1.35 0.25 -3.95 0.70 -5.75 1 -3.05 0.55 -4.50 0.80 -9.60 2 -1.20 0.25 -3.25 0.70 -4.65 1 -16.50 3.60 -32 8.50 -49.50 15.60 -28.75 11.65 -58.55 29.30 -84.50 50.10 -13.25 10.65 -32.05 28.25 -42.80 40.05 -4.90 5.45 -9.55 10.75 -10.60 12.15 -0.60 0.75 -1.20 1.45 -1.40 1.60 -0.15 0.15 -3.65 4.75 -7.80 10.25 -7.75 10.40 -11.95 16.60 -20 29.50 -0.55 0.90 -2.65 4.50 -6.85 11.75 -1.65 2.80 -9.70 18.95 -11 22 -0.55 1.25 -1.95 4.40 -3.20 7 -1.20 2.60 -2.65 5.85 -3.20 7.20 -0.50 1.35 -1.35 3.40 -1.90 4.50 -0.95 2.10 -4.90 12.10 -6.50 16.55 -0.50 1.40 -1.60 4.65 -2.40 7.25 -0.80 2.60 -1.85 6 -2.30 7.50 -0.90 2.85 -1.55 5.20 -3.55 12.75 -1.40 5.20 -1.35 5.05 -2.75 11 -1.80 7.60 -1.85 7.95 -3.45 16.25 -4.70 24.85 -6.60 57.05 -5.05 86.75 1.55 30.15 3.45 45.05 8.50 66.50 0.85 3.60 1.75 7.40 2 8.50 0.75 3.20 4.70 18.35 6 23 2.20 7.85 7 21.75 9.25 27 0.35 0.85 2.85 6.70 5.50 13 3.95 9.25 11.70 25.80 12.55 26.70 0.10 0.10 1.80 -1.10 3.80 -2.65 18.30 -14.25 30.95 -22.65 48.15 -32.05 4.55 -2.45 11.45 -6.35 11.75 -6.65 0.15 -0.10 -0.15 -0.45 -0.65 -0.80 -10.60 -6.50 -18.10 -13.10 -25.05 -22.05 -6.35 -8.15 -11.65 -18.95 -13.70 -27.75 -0.30 -1.25 -0.75 -3.25 -1.05 -4.50 -2.35 -10.25 -1.85 -24.10 1.30 -36 0.40 -1.50 0.90 -3.40 1.15 -4.25 0.55 -2.25 3.30 -9 5.35 -13.20 1.55 -3.20 4.70 -8.55 9.25 -15.80 1.50 -2.40 5.05 -9.80 5.85 -12.25 0.70 -2.15 0.75 -5.60 0.60 -24 -0.15 -15.40 0.35 -21.65 2.75 -34 0.65 -3.55 3.40 -10.90 5.75 -15.50 4.95 -9.70 12.45 -19.85 23.95 -32.50 7.05 -7.75 9.80 -11.35 12.85 -17 0.80 -1.50 1.75 -3.20 2.05 -3.75 1 -1.75 4.40 -9.90 5.05 -12.25 0.35 -1.25 0.85 -2.80 1.10 -3.50 0.55 -1.65 2.20 -10.15 2.95 -15.25 0.55 -3.60 1.40 -8.85 2.25 -13.75 1.05 -5.95 3.90 -17.40 6 -23.75 2.80 -8.60 11.25 -27.25 16.25 -36 0.65 -1.10 2 -3.45 3 -5.25 20.25 -36.25 48.90 -62.05 88.50 -79.90 10.30 -4.65 25.70 -9.80 37 -12.35 6.40 -1.50 7.65 -1.75 10.65 -2.25 34.25 -5.90 61.15 -5.20 90.35 2.40 6.10 1.60 19.80 6.30 24.75 8.55 1.10 0.50 3 1.30 4.25 1.85 8.20 3.40 22 11.10 32 17.85 16.10 10.85 33.35 27.70 42.20 41.10 1.25 1.95 2.45 3.75 2.70 4 2.30 3 10.30 18.75 13.30 26.20 5.30 13.40 9.05 27.40 12.05 45.05 2.60 15.50 3.25 20.35 4.75 35.85 0.35 3.10 0.75 15.35 1 27.25 0.25 11.90 0.55 22.10 0.70 22.65 0.15 0.55 0.60 2.90 1.05 5.25 1.15 6.45 2.85 11.95 5.30 17.40 0.80 1.70 5 8.45 9.40 15 9.65 14.45 12.05 18.70 16.15 28.35 4.90 11.55 7.30 21 9.20 36 0.85 6.95 0.70 21.30 -0.25 27.75 -1.50 10.10 -4.70 20.50 -10.10 32.85 -0.55 1.20 -0.95 2.25 -0.95 2.40 0 0.10 -0.70 1.75 -1.55 3.60 -0.85 1.90 -2.15 4.65 -2.80 6.15 -1.40 3.05 -3.40 7.35 -5.60 12.15 -5.05 10.80 -6.10 14.80 -7.55 29.10 -2.20 21.65 -5.80 30.75 -16.05 40.55 -6.05 5.75 -11.75 8.60 -22.20 11.20 -5.40 1.30 -24.10 1.10 -30.35 -0.30 -2.45 -0.55 -1.50 0.55 3 3.40 4.20 2.70 6.90 4.15 23.85 12.90 41.45 21.35 76.65 43.80 92.15 58.70 3.95 3.75 4.75 4.35 5.30 3.75 0.35 -0.40 2.45 -2.70 4.65 -5.20z m-230.85 -77.75 c0 -0.30 -1.15 -1.10 -2.60 -1.90 -2.35 -1.25 -15.05 -9.45 -16.85 -10.90 -8.25 -6.50 -14.80 -12.35 -21.30 -18.90 -17.95 -18.05 -32.40 -38.30 -30.20 -42.35 1 -1.95 5.45 -0.90 12.20 2.85 3.30 1.85 17.35 11.95 21 15.10 3.95 3.45 14.65 10.85 20.75 14.45 7.95 4.65 18.25 8.45 27.50 10.15 1.80 0.30 4.30 0.80 5.60 1.05 4.20 0.80 17.40 1.10 23 0.50 5.20 -0.50 11.95 -1.70 14.40 -2.50 0.70 -0.25 2.15 -0.70 3.25 -1 2.25 -0.70 2.90 -0.95 6.75 -2.60 7.50 -3.30 16 -10.75 21.75 -19.15 3.45 -5 7.25 -10.20 12 -16.30 1.80 -2.35 5.15 -7.05 7.40 -10.50 10.55 -15.85 14.85 -25.80 18.05 -42 1.20 -5.85 4.60 -30.60 5.80 -41.75 0.30 -2.75 0.75 -6.70 1 -8.75 0.45 -3.60 0.95 -8.35 2 -18.10 0.25 -2.55 0.75 -7.25 1.10 -10.40 0.85 -7.60 0.85 -30.80 0 -34.50 -0.35 -1.50 -0.85 -4 -1.15 -5.50 -0.65 -3.15 -1.95 -7.90 -3.95 -14 -0.75 -2.35 -2.35 -7.30 -3.50 -11 -7.10 -22.50 -8.45 -25.80 -11.60 -29.05 -3.30 -3.40 -5.70 -4.20 -12.65 -4.15 -4.85 0 -6.65 0.25 -9.50 1.15 -7.55 2.50 -11.85 6.05 -15.25 12.60 -2.40 4.65 -2.50 5.20 -0.60 4.30 3.25 -1.65 10.40 -2.85 16.80 -2.85 10.85 0 18.85 2.90 24.30 8.90 2.35 2.50 4.50 6.90 4.50 9.15 0 1.65 -1.45 3.95 -2.50 3.95 -0.85 0 -4.25 -1.80 -7.50 -3.95 -1.45 -0.95 -4.95 -2.25 -5.30 -1.90 -0.10 0.10 0.15 1 0.55 2 2.65 6.40 -1.35 10.85 -9.75 10.85 -5.40 0 -8.40 -1.55 -11.45 -5.90 -1 -1.40 -1.15 -2.10 -0.90 -4.20 l0.30 -2.50 -1.35 0.90 c-2.20 1.45 -4.70 2.55 -7.45 3.25 l-2.65 0.65 0 2 c0 2 0.95 8.20 1.90 12.80 1.10 5.10 1.60 7.35 2.05 9 1.95 7.35 4.05 15.80 4.55 18.75 1.15 6.55 2.70 11.30 4 12.25 0.15 0.15 1.25 1.60 2.35 3.25 4.55 6.80 5.35 9.45 5.35 18.25 0 3.75 -0.20 7.40 -0.55 8.25 -0.30 0.85 -0.85 2.50 -1.20 3.75 -1.20 4 -3.90 9 -6.10 11.15 -2.90 2.90 -5.45 3.60 -13.10 3.50 -7.45 -0.05 -11.65 -1.15 -22.75 -5.80 -14.65 -6.15 -18.85 -7.20 -30.50 -7.55 -18.05 -0.65 -19.85 -0.85 -22.95 -3.20 -2.30 -1.70 -3.05 -3.85 -3.05 -8.65 0 -4.90 0.50 -6.90 3.05 -12.35 2.25 -4.80 6.10 -9.10 8.15 -9.10 0.70 0 1.35 0.20 1.55 0.45 0.15 0.25 -0.20 2.80 -0.75 5.65 -2.10 10.50 -2.05 9.40 -0.55 9.40 0.75 0 3.45 -0.45 6.05 -0.95 9 -1.85 16.05 -2.25 32.65 -1.90 17.80 0.40 18.25 0.35 20.10 -3.40 0.85 -1.70 1 -2.95 0.95 -8.75 0 -6.95 -0.40 -9.80 -2.55 -20.50 -0.70 -3.45 -1.70 -8.40 -2.20 -11 -0.50 -2.60 -1.40 -6.90 -1.95 -9.50 -4.10 -18.80 -5.55 -28.15 -5.55 -36 -0.05 -3.70 0.20 -7.85 0.55 -9.25 1.40 -6.05 1.65 -7.15 2.60 -10 1.30 -4.05 1.40 -4.25 4.35 -10.35 3.35 -6.95 5.80 -9 14.55 -12.25 2.55 -0.95 3.55 -1.25 8.75 -2.60 4.55 -1.15 12.15 -1.60 17.35 -1.05 2.80 0.30 5.30 0.70 5.50 0.80 0.20 0.15 1.70 0.60 3.25 1 5.70 1.50 12.65 5.65 17.10 10.20 1.80 1.90 7.55 10.30 7.55 11.10 0 0.25 0.20 0.35 0.50 0.15 0.55 -0.35 0.25 -14.65 -0.50 -22 -1 -10.10 -2.05 -17.30 -3.35 -23.75 -1.55 -7.60 -1.80 -8.55 -3.65 -15 -0.55 -2.05 -1.25 -4.40 -1.45 -5.25 -2.10 -7.80 -9.65 -24.60 -14.95 -33.25 -10.85 -17.80 -28.15 -35.75 -44.60 -46.40 -6.95 -4.50 -7.45 -4.75 -15.25 -8.75 -11.05 -5.55 -21.90 -9.60 -31.85 -11.80 -1.35 -0.30 -3.35 -0.75 -4.50 -1 -2.15 -0.50 -5 -0.95 -12.65 -2.10 -3.75 -0.55 -32.70 -0.80 -35 -0.30 -0.55 0.15 -2.70 0.40 -4.75 0.60 -5.50 0.50 -17.40 2.70 -23 4.20 -0.95 0.30 -2.55 0.70 -3.50 0.95 -0.95 0.25 -3.10 0.95 -4.75 1.55 -1.65 0.60 -4 1.45 -5.25 1.85 -3.40 1.15 -14.90 6.80 -19.35 9.50 -11.35 6.90 -18.30 12.20 -26.15 20.15 -6.45 6.50 -10.40 12.10 -14 19.75 -5.50 11.60 -7.75 21.25 -7.70 33.30 0 7.05 0.15 8.35 1.65 14.25 2.10 8.40 2.95 12 3.50 14.75 0.25 1.25 0.70 3.50 1 5 0.95 4.45 1.50 8.80 2.30 17 1.60 16.70 0.55 29.75 -3.80 48.40 -1.30 5.35 -6 18.80 -9.05 25.60 -1.30 2.95 -7.10 14.55 -7.90 15.85 -0.55 0.85 -0.50 1.45 0.35 3.70 2.70 7.10 3.35 10.85 3.40 18.45 0 7.05 -0.75 10.60 -3.25 15.50 -1.70 3.35 -5.85 7.40 -9.30 9 -2.85 1.40 -3.75 1.55 -8.25 1.65 -4.45 0.10 -5.10 0 -5.70 -0.85 -0.45 -0.55 -0.60 -1.45 -0.40 -2.20 0.25 -1.10 0.20 -1.15 -0.75 -0.65 -1.65 0.85 -4.35 4.30 -6 7.70 -2.45 4.85 -3.30 8.80 -2.95 14.10 0.50 7.10 2.50 11.50 7.55 16.55 4.45 4.35 10.90 7.15 16.55 7.15 2.95 0 7.40 -1.15 10.05 -2.65 1.30 -0.70 2.50 -1.30 2.75 -1.30 0.25 0 0.45 3.20 0.45 7.15 0 9.95 1.20 22.40 2.80 29.25 3.85 16.25 14.45 35 30.10 53.35 6.85 8 22.30 23.15 29.35 28.75 3.60 2.85 7.80 6.35 9.40 7.80 6.10 5.60 28 17.45 43.35 23.40 12.65 4.90 12.35 4.80 17.25 6.05 4.60 1.15 11.05 2.15 15.50 2.40 1.40 0.10 2.65 0.20 2.90 0.25 0.20 0.05 0.35 -0.15 0.35 -0.40z"/>
  <path d="M575.25 590.05 c-7.95 -0.35 -9.25 -0.95 -9.25 -4.10 0 -2.55 2.80 -8.70 4.80 -10.50 2.50 -2.30 5.15 -3.85 8.05 -4.70 5.45 -1.60 21.55 -1.75 24.70 -0.25 1.95 0.90 3.45 4.10 3.45 7.35 0 6 -2.70 11.10 -6.40 12.15 -1.90 0.50 -13.90 0.55 -25.35 0.05z"/>
  <path d="M627.75 562 c-1.10 -0.20 -3.70 -0.85 -5.75 -1.45 -7.80 -2.25 -8.90 -2.50 -12.55 -2.85 -2.20 -0.20 -5.90 -0.05 -9.20 0.35 -6.80 0.85 -10.70 0.85 -14.25 0.05 -7.70 -1.75 -30.10 -3.05 -52.50 -3.05 -15.15 -0.05 -18.70 0.10 -21 0.75 -6.30 1.80 -7.45 1.90 -8.40 0.90 -1.35 -1.45 -2.10 -3.55 -2.10 -5.70 0 -1.45 0.45 -2.45 1.95 -4.35 3.30 -4.20 8.95 -8.60 11.15 -8.65 0.50 0 2.15 0.60 3.75 1.30 9.65 4.30 14.70 4.60 26.90 1.65 6.65 -1.60 18.60 -2.50 24.85 -1.90 4.65 0.45 5.55 0.60 12.30 2.20 4 0.90 8.80 0.85 14.60 -0.25 3.70 -0.70 9.95 -0.35 15.45 0.75 13.40 2.80 20.05 8.20 20.05 16.20 0 3.90 -1.20 4.80 -5.25 4.05z"/>
  <path d="M496.90 420.25 c-3.85 -1.05 -8 -4.10 -8.95 -6.60 -0.35 -0.95 -0.70 -1.15 -1.35 -0.90 -6.40 2.70 -10.75 3.55 -13.95 2.80 -3.30 -0.80 -5.40 -2.50 -4.95 -3.95 0.45 -1.30 9.05 -8.50 14.40 -11.95 12.45 -8.15 26 -12.60 38.15 -12.65 3.40 0 5.20 0.25 7.25 1.05 5 1.90 4.85 1.95 3.30 -0.85 -4.60 -7.95 -9.10 -11.55 -17.30 -13.75 -3.20 -0.90 -14.15 -0.85 -17.25 0 -5.95 1.70 -10.45 5.15 -22 16.85 -4.95 5.05 -9.70 9.40 -10.50 9.70 -2.75 1.10 -6.95 1.95 -9.55 2 -3.60 0 -4.45 -1.05 -4.40 -5.45 0.15 -9 9.05 -24.85 20.45 -36.35 9.45 -9.50 17.90 -14.20 29.70 -16.45 5.05 -1 18 -0.95 23.55 0 11.55 2.05 21.90 5.65 25.85 8.95 6.55 5.50 6.05 21.90 -1.25 41.55 -2.65 7.20 -3.65 9.45 -5.70 13.25 -2.30 4.40 -3.25 5.50 -4.45 5.50 -0.45 0 -2.65 -1.45 -4.90 -3.20 -4.35 -3.45 -7.50 -5.20 -10.25 -5.65 l-1.80 -0.30 0.10 3.80 c0.05 3.20 -0.15 4.05 -1.25 5.95 -1.90 3.25 -5.35 5.50 -10.35 6.70 -3.45 0.85 -9.50 0.80 -12.60 -0.05z"/>
 </g>
</svg>